<svg id="visual" viewBox="0 0 960 540" width="960" height="540" xmlns="http://www.w3.org/2000/svg" xmlns:xlink="http://www.w3.org/1999/xlink" version="1.1"><path d="M0 88L22.8 84.5C45.7 81 91.3 74 137 75.8C182.7 77.7 228.3 88.3 274 86.2C319.7 84 365.3 69 411.2 63.3C457 57.7 503 61.3 548.8 63.2C594.7 65 640.3 65 686 71.2C731.7 77.3 777.3 89.7 823 94.8C868.7 100 914.3 98 937.2 97L960 96L960 0L937.2 0C914.3 0 868.7 0 823 0C777.3 0 731.7 0 686 0C640.3 0 594.7 0 548.8 0C503 0 457 0 411.2 0C365.3 0 319.7 0 274 0C228.3 0 182.7 0 137 0C91.3 0 45.7 0 22.8 0L0 0Z" fill="#0066FF" stroke-linecap="round" stroke-linejoin="miter"></path></svg>