<svg id="visual" viewBox="0 0 960 540" width="960" height="540" xmlns="http://www.w3.org/2000/svg" xmlns:xlink="http://www.w3.org/1999/xlink" version="1.1"><path d="M0 87L14.5 82.5C29 78 58 69 87.2 66.3C116.3 63.7 145.7 67.3 174.8 74.7C204 82 233 93 262 91.2C291 89.3 320 74.7 349 69.2C378 63.7 407 67.3 436.2 72.8C465.3 78.3 494.7 85.7 523.8 87.5C553 89.3 582 85.7 611 84.7C640 83.7 669 85.3 698 83.5C727 81.7 756 76.3 785.2 78.2C814.3 80 843.7 89 872.8 84.5C902 80 931 62 945.5 53L960 44L960 0L945.5 0C931 0 902 0 872.8 0C843.7 0 814.3 0 785.2 0C756 0 727 0 698 0C669 0 640 0 611 0C582 0 553 0 523.8 0C494.7 0 465.3 0 436.2 0C407 0 378 0 349 0C320 0 291 0 262 0C233 0 204 0 174.8 0C145.7 0 116.3 0 87.2 0C58 0 29 0 14.5 0L0 0Z" fill="#6198ff"></path><path d="M0 185L14.5 180.5C29 176 58 167 87.2 162.5C116.3 158 145.7 158 174.8 160.7C204 163.3 233 168.7 262 165.8C291 163 320 152 349 154.7C378 157.3 407 173.7 436.2 181C465.3 188.3 494.7 186.7 523.8 184.8C553 183 582 181 611 185.5C640 190 669 201 698 192C727 183 756 154 785.2 156.7C814.3 159.3 843.7 193.7 872.8 194.7C902 195.7 931 163.3 945.5 147.2L960 131L960 42L945.5 51C931 60 902 78 872.8 82.5C843.7 87 814.3 78 785.2 76.2C756 74.3 727 79.7 698 81.5C669 83.3 640 81.7 611 82.7C582 83.7 553 87.3 523.8 85.5C494.7 83.7 465.3 76.3 436.2 70.8C407 65.3 378 61.7 349 67.2C320 72.7 291 87.3 262 89.2C233 91 204 80 174.8 72.7C145.7 65.3 116.3 61.7 87.2 64.3C58 67 29 76 14.5 80.5L0 85Z" fill="#3c80ff"></path><path d="M0 222L14.5 223.8C29 225.7 58 229.3 87.2 232.2C116.3 235 145.7 237 174.8 233.5C204 230 233 221 262 217.3C291 213.7 320 215.3 349 223.3C378 231.3 407 245.7 436.2 248.3C465.3 251 494.7 242 523.8 241.2C553 240.3 582 247.7 611 254C640 260.3 669 265.7 698 258.5C727 251.3 756 231.7 785.2 231.7C814.3 231.7 843.7 251.3 872.8 251.3C902 251.3 931 231.7 945.5 221.8L960 212L960 129L945.5 145.2C931 161.3 902 193.7 872.8 192.7C843.7 191.7 814.3 157.3 785.2 154.7C756 152 727 181 698 190C669 199 640 188 611 183.5C582 179 553 181 523.8 182.8C494.7 184.7 465.3 186.3 436.2 179C407 171.7 378 155.3 349 152.7C320 150 291 161 262 163.8C233 166.7 204 161.3 174.8 158.7C145.7 156 116.3 156 87.2 160.5C58 165 29 174 14.5 178.5L0 183Z" fill="#0066ff"></path><path d="M0 411L14.5 402C29 393 58 375 87.2 366C116.3 357 145.7 357 174.8 359.8C204 362.7 233 368.3 262 372C291 375.7 320 377.3 349 388C378 398.7 407 418.3 436.2 412C465.3 405.7 494.7 373.3 523.8 360.8C553 348.3 582 355.7 611 374.7C640 393.7 669 424.3 698 436C727 447.7 756 440.3 785.2 431.3C814.3 422.3 843.7 411.7 872.8 392.8C902 374 931 347 945.5 333.5L960 320L960 210L945.5 219.8C931 229.7 902 249.3 872.8 249.3C843.7 249.3 814.3 229.7 785.2 229.7C756 229.7 727 249.3 698 256.5C669 263.7 640 258.3 611 252C582 245.7 553 238.3 523.8 239.2C494.7 240 465.3 249 436.2 246.3C407 243.7 378 229.3 349 221.3C320 213.3 291 211.7 262 215.3C233 219 204 228 174.8 231.5C145.7 235 116.3 233 87.2 230.2C58 227.3 29 223.7 14.5 221.8L0 220Z" fill="#0059dd"></path><path d="M0 541L14.5 541C29 541 58 541 87.2 541C116.3 541 145.7 541 174.8 541C204 541 233 541 262 541C291 541 320 541 349 541C378 541 407 541 436.2 541C465.3 541 494.7 541 523.8 541C553 541 582 541 611 541C640 541 669 541 698 541C727 541 756 541 785.2 541C814.3 541 843.7 541 872.8 541C902 541 931 541 945.5 541L960 541L960 318L945.5 331.5C931 345 902 372 872.8 390.8C843.7 409.7 814.3 420.3 785.2 429.3C756 438.3 727 445.7 698 434C669 422.3 640 391.7 611 372.7C582 353.7 553 346.3 523.8 358.8C494.7 371.3 465.3 403.7 436.2 410C407 416.3 378 396.7 349 386C320 375.3 291 373.7 262 370C233 366.3 204 360.7 174.8 357.8C145.7 355 116.3 355 87.2 364C58 373 29 391 14.5 400L0 409Z" fill="#004cbb"></path></svg>