<svg id="visual" viewBox="0 0 960 540" width="960" height="540" xmlns="http://www.w3.org/2000/svg" xmlns:xlink="http://www.w3.org/1999/xlink" version="1.1"><rect x="0" y="0" width="960" height="540" fill="#002233"></rect><path d="M0 146L22.8 147.3C45.7 148.7 91.3 151.3 137 146C182.7 140.7 228.3 127.3 274 124.7C319.7 122 365.3 130 411.2 136.3C457 142.7 503 147.3 548.8 138.2C594.7 129 640.3 106 686 97C731.7 88 777.3 93 823 106.7C868.7 120.3 914.3 142.7 937.2 153.8L960 165L960 0L937.2 0C914.3 0 868.7 0 823 0C777.3 0 731.7 0 686 0C640.3 0 594.7 0 548.8 0C503 0 457 0 411.2 0C365.3 0 319.7 0 274 0C228.3 0 182.7 0 137 0C91.3 0 45.7 0 22.8 0L0 0Z" fill="#0066FF" stroke-linecap="round" stroke-linejoin="miter"></path></svg>