<svg id="visual" viewBox="0 0 960 540" width="960" height="540" xmlns="http://www.w3.org/2000/svg" xmlns:xlink="http://www.w3.org/1999/xlink" version="1.1"><rect x="0" y="0" width="960" height="540" fill="#001220"></rect><path d="M0 76L22.8 74.2C45.7 72.3 91.3 68.7 137 67.2C182.7 65.7 228.3 66.3 274 66.5C319.7 66.7 365.3 66.3 411.2 66.3C457 66.3 503 66.7 548.8 65.3C594.7 64 640.3 61 686 59.8C731.7 58.7 777.3 59.3 823 61.8C868.7 64.3 914.3 68.7 937.2 70.8L960 73L960 0L937.2 0C914.3 0 868.7 0 823 0C777.3 0 731.7 0 686 0C640.3 0 594.7 0 548.8 0C503 0 457 0 411.2 0C365.3 0 319.7 0 274 0C228.3 0 182.7 0 137 0C91.3 0 45.7 0 22.8 0L0 0Z" fill="#6992fa"></path><path d="M0 51L22.8 52.5C45.7 54 91.3 57 137 58.2C182.7 59.3 228.3 58.7 274 58.7C319.7 58.7 365.3 59.3 411.2 57C457 54.7 503 49.3 548.8 46.7C594.7 44 640.3 44 686 45C731.7 46 777.3 48 823 49.5C868.7 51 914.3 52 937.2 52.5L960 53L960 0L937.2 0C914.3 0 868.7 0 823 0C777.3 0 731.7 0 686 0C640.3 0 594.7 0 548.8 0C503 0 457 0 411.2 0C365.3 0 319.7 0 274 0C228.3 0 182.7 0 137 0C91.3 0 45.7 0 22.8 0L0 0Z" fill="#4c70ec"></path><path d="M0 38L22.8 37.5C45.7 37 91.3 36 137 34.5C182.7 33 228.3 31 274 31.3C319.7 31.7 365.3 34.3 411.2 34.7C457 35 503 33 548.8 31.8C594.7 30.7 640.3 30.3 686 30.8C731.7 31.3 777.3 32.7 823 34C868.7 35.3 914.3 36.7 937.2 37.3L960 38L960 0L937.2 0C914.3 0 868.7 0 823 0C777.3 0 731.7 0 686 0C640.3 0 594.7 0 548.8 0C503 0 457 0 411.2 0C365.3 0 319.7 0 274 0C228.3 0 182.7 0 137 0C91.3 0 45.7 0 22.8 0L0 0Z" fill="#344ddb"></path><path d="M0 15L22.8 15.7C45.7 16.3 91.3 17.7 137 18.8C182.7 20 228.3 21 274 20.8C319.7 20.7 365.3 19.3 411.2 18.2C457 17 503 16 548.8 15.8C594.7 15.7 640.3 16.3 686 17.8C731.7 19.3 777.3 21.7 823 23.3C868.7 25 914.3 26 937.2 26.5L960 27L960 0L937.2 0C914.3 0 868.7 0 823 0C777.3 0 731.7 0 686 0C640.3 0 594.7 0 548.8 0C503 0 457 0 411.2 0C365.3 0 319.7 0 274 0C228.3 0 182.7 0 137 0C91.3 0 45.7 0 22.8 0L0 0Z" fill="#2624c7"></path></svg>