<svg id="visual" viewBox="0 0 960 540" width="960" height="540" xmlns="http://www.w3.org/2000/svg" xmlns:xlink="http://www.w3.org/1999/xlink" version="1.1"><path d="M0 60L14.5 54.7C29 49.3 58 38.7 87.2 38.7C116.3 38.7 145.7 49.3 174.8 55.7C204 62 233 64 262 60.5C291 57 320 48 349 43.5C378 39 407 39 436.2 45.3C465.3 51.7 494.7 64.3 523.8 62.5C553 60.7 582 44.3 611 36.2C640 28 669 28 698 31.7C727 35.3 756 42.7 785.2 50.8C814.3 59 843.7 68 872.8 68C902 68 931 59 945.5 54.5L960 50L960 0L945.5 0C931 0 902 0 872.8 0C843.7 0 814.3 0 785.2 0C756 0 727 0 698 0C669 0 640 0 611 0C582 0 553 0 523.8 0C494.7 0 465.3 0 436.2 0C407 0 378 0 349 0C320 0 291 0 262 0C233 0 204 0 174.8 0C145.7 0 116.3 0 87.2 0C58 0 29 0 14.5 0L0 0Z" fill="#55a5ac"></path><path d="M0 109L14.5 101.8C29 94.7 58 80.3 87.2 77.7C116.3 75 145.7 84 174.8 101C204 118 233 143 262 151C291 159 320 150 349 137.5C378 125 407 109 436.2 114.5C465.3 120 494.7 147 523.8 147C553 147 582 120 611 108.3C640 96.7 669 100.3 698 98.5C727 96.7 756 89.3 785.2 90.2C814.3 91 843.7 100 872.8 106.3C902 112.7 931 116.3 945.5 118.2L960 120L960 48L945.5 52.5C931 57 902 66 872.8 66C843.7 66 814.3 57 785.2 48.8C756 40.7 727 33.3 698 29.7C669 26 640 26 611 34.2C582 42.3 553 58.7 523.8 60.5C494.7 62.3 465.3 49.7 436.2 43.3C407 37 378 37 349 41.5C320 46 291 55 262 58.5C233 62 204 60 174.8 53.7C145.7 47.3 116.3 36.7 87.2 36.7C58 36.7 29 47.3 14.5 52.7L0 58Z" fill="#7bb8be"></path><path d="M0 163L14.5 157.7C29 152.3 58 141.7 87.2 138C116.3 134.3 145.7 137.7 174.8 148.3C204 159 233 177 262 187C291 197 320 199 349 192.8C378 186.7 407 172.3 436.2 176.8C465.3 181.3 494.7 204.7 523.8 202.8C553 201 582 174 611 160.5C640 147 669 147 698 147C727 147 756 147 785.2 146C814.3 145 843.7 143 872.8 143C902 143 931 145 945.5 146L960 147L960 118L945.5 116.2C931 114.3 902 110.7 872.8 104.3C843.7 98 814.3 89 785.2 88.2C756 87.3 727 94.7 698 96.5C669 98.3 640 94.7 611 106.3C582 118 553 145 523.8 145C494.7 145 465.3 118 436.2 112.5C407 107 378 123 349 135.5C320 148 291 157 262 149C233 141 204 116 174.8 99C145.7 82 116.3 73 87.2 75.7C58 78.3 29 92.7 14.5 99.8L0 107Z" fill="#9eccd0"></path><path d="M0 276L14.5 279.7C29 283.3 58 290.7 87.2 295.2C116.3 299.7 145.7 301.3 174.8 314C204 326.7 233 350.3 262 352.2C291 354 320 334 349 325C378 316 407 318 436.2 319C465.3 320 494.7 320 523.8 306.5C553 293 582 266 611 267.7C640 269.3 669 299.7 698 315.8C727 332 756 334 785.2 320.5C814.3 307 843.7 278 872.8 260.8C902 243.7 931 238.3 945.5 235.7L960 233L960 145L945.5 144C931 143 902 141 872.8 141C843.7 141 814.3 143 785.2 144C756 145 727 145 698 145C669 145 640 145 611 158.5C582 172 553 199 523.8 200.8C494.7 202.7 465.3 179.3 436.2 174.8C407 170.3 378 184.7 349 190.8C320 197 291 195 262 185C233 175 204 157 174.8 146.3C145.7 135.7 116.3 132.3 87.2 136C58 139.7 29 150.3 14.5 155.7L0 161Z" fill="#9eccd0"></path><path d="M0 406L14.5 407.8C29 409.7 58 413.3 87.2 417.8C116.3 422.3 145.7 427.7 174.8 432.2C204 436.7 233 440.3 262 449.3C291 458.3 320 472.7 349 476.2C378 479.7 407 472.3 436.2 469.7C465.3 467 494.7 469 523.8 472.7C553 476.3 582 481.7 611 473.5C640 465.3 669 443.7 698 436.5C727 429.3 756 436.7 785.2 434C814.3 431.3 843.7 418.7 872.8 412.3C902 406 931 406 945.5 406L960 406L960 231L945.5 233.7C931 236.3 902 241.7 872.8 258.8C843.7 276 814.3 305 785.2 318.5C756 332 727 330 698 313.8C669 297.7 640 267.3 611 265.7C582 264 553 291 523.8 304.5C494.7 318 465.3 318 436.2 317C407 316 378 314 349 323C320 332 291 352 262 350.2C233 348.3 204 324.7 174.8 312C145.7 299.3 116.3 297.7 87.2 293.2C58 288.7 29 281.3 14.5 277.7L0 274Z" fill="#7bb8be"></path><path d="M0 541L14.5 541C29 541 58 541 87.2 541C116.3 541 145.7 541 174.8 541C204 541 233 541 262 541C291 541 320 541 349 541C378 541 407 541 436.2 541C465.3 541 494.7 541 523.8 541C553 541 582 541 611 541C640 541 669 541 698 541C727 541 756 541 785.2 541C814.3 541 843.7 541 872.8 541C902 541 931 541 945.5 541L960 541L960 404L945.5 404C931 404 902 404 872.8 410.3C843.7 416.7 814.3 429.3 785.2 432C756 434.7 727 427.3 698 434.5C669 441.7 640 463.3 611 471.5C582 479.7 553 474.3 523.8 470.7C494.7 467 465.3 465 436.2 467.7C407 470.3 378 477.7 349 474.2C320 470.7 291 456.3 262 447.3C233 438.3 204 434.7 174.8 430.2C145.7 425.7 116.3 420.3 87.2 415.8C58 411.3 29 407.7 14.5 405.8L0 404Z" fill="#55a5ac"></path></svg>