<svg id="visual" viewBox="0 0 960 540" width="960" height="540" xmlns="http://www.w3.org/2000/svg" xmlns:xlink="http://www.w3.org/1999/xlink" version="1.1"><path d="M0 60L17.8 59.2C35.7 58.3 71.3 56.7 106.8 55.8C142.3 55 177.7 55 213.2 57.7C248.7 60.3 284.3 65.7 320 69.3C355.7 73 391.3 75 426.8 76C462.3 77 497.7 77 533.2 68.8C568.7 60.7 604.3 44.3 640 36.2C675.7 28 711.3 28 746.8 33.3C782.3 38.7 817.7 49.3 853.2 51.2C888.7 53 924.3 46 942.2 42.5L960 39L960 0L942.2 0C924.3 0 888.7 0 853.2 0C817.7 0 782.3 0 746.8 0C711.3 0 675.7 0 640 0C604.3 0 568.7 0 533.2 0C497.7 0 462.3 0 426.8 0C391.3 0 355.7 0 320 0C284.3 0 248.7 0 213.2 0C177.7 0 142.3 0 106.8 0C71.3 0 35.7 0 17.8 0L0 0Z" fill="#1b7f89"></path><path d="M0 136L17.8 131.5C35.7 127 71.3 118 106.8 113.5C142.3 109 177.7 109 213.2 113.5C248.7 118 284.3 127 320 131.5C355.7 136 391.3 136 426.8 136C462.3 136 497.7 136 533.2 130.7C568.7 125.3 604.3 114.7 640 104.8C675.7 95 711.3 86 746.8 86C782.3 86 817.7 95 853.2 106.7C888.7 118.3 924.3 132.7 942.2 139.8L960 147L960 37L942.2 40.5C924.3 44 888.7 51 853.2 49.2C817.7 47.3 782.3 36.7 746.8 31.3C711.3 26 675.7 26 640 34.2C604.3 42.3 568.7 58.7 533.2 66.8C497.7 75 462.3 75 426.8 74C391.3 73 355.7 71 320 67.3C284.3 63.7 248.7 58.3 213.2 55.7C177.7 53 142.3 53 106.8 53.8C71.3 54.7 35.7 56.3 17.8 57.2L0 58Z" fill="#23aeba"></path><path d="M0 293L17.8 278.5C35.7 264 71.3 235 106.8 218.7C142.3 202.3 177.7 198.7 213.2 205C248.7 211.3 284.3 227.7 320 252C355.7 276.3 391.3 308.7 426.8 325.8C462.3 343 497.7 345 533.2 341.5C568.7 338 604.3 329 640 303.7C675.7 278.3 711.3 236.7 746.8 234.8C782.3 233 817.7 271 853.2 280C888.7 289 924.3 269 942.2 259L960 249L960 145L942.2 137.8C924.3 130.7 888.7 116.3 853.2 104.7C817.7 93 782.3 84 746.8 84C711.3 84 675.7 93 640 102.8C604.3 112.7 568.7 123.3 533.2 128.7C497.7 134 462.3 134 426.8 134C391.3 134 355.7 134 320 129.5C284.3 125 248.7 116 213.2 111.5C177.7 107 142.3 107 106.8 111.5C71.3 116 35.7 125 17.8 129.5L0 134Z" fill="#6cc5ce"></path><path d="M0 406L17.8 406C35.7 406 71.3 406 106.8 404.2C142.3 402.3 177.7 398.7 213.2 394.2C248.7 389.7 284.3 384.3 320 388.8C355.7 393.3 391.3 407.7 426.8 414C462.3 420.3 497.7 418.7 533.2 413.3C568.7 408 604.3 399 640 400.8C675.7 402.7 711.3 415.3 746.8 419.8C782.3 424.3 817.7 420.7 853.2 418.8C888.7 417 924.3 417 942.2 417L960 417L960 247L942.2 257C924.3 267 888.7 287 853.2 278C817.7 269 782.3 231 746.8 232.8C711.3 234.7 675.7 276.3 640 301.7C604.3 327 568.7 336 533.2 339.5C497.7 343 462.3 341 426.8 323.8C391.3 306.7 355.7 274.3 320 250C284.3 225.7 248.7 209.3 213.2 203C177.7 196.7 142.3 200.3 106.8 216.7C71.3 233 35.7 262 17.8 276.5L0 291Z" fill="#6cc5ce"></path><path d="M0 509L17.8 509.8C35.7 510.7 71.3 512.3 106.8 509.5C142.3 506.7 177.7 499.3 213.2 497.5C248.7 495.7 284.3 499.3 320 498.5C355.7 497.7 391.3 492.3 426.8 490.5C462.3 488.7 497.7 490.3 533.2 490.3C568.7 490.3 604.3 488.7 640 487C675.7 485.3 711.3 483.7 746.8 486.3C782.3 489 817.7 496 853.2 500.5C888.7 505 924.3 507 942.2 508L960 509L960 415L942.2 415C924.3 415 888.7 415 853.2 416.8C817.7 418.7 782.3 422.3 746.8 417.8C711.3 413.3 675.7 400.7 640 398.8C604.3 397 568.7 406 533.2 411.3C497.7 416.7 462.3 418.3 426.8 412C391.3 405.7 355.7 391.3 320 386.8C284.3 382.3 248.7 387.7 213.2 392.2C177.7 396.7 142.3 400.3 106.8 402.2C71.3 404 35.7 404 17.8 404L0 404Z" fill="#23aeba"></path><path d="M0 541L17.8 541C35.7 541 71.3 541 106.8 541C142.3 541 177.7 541 213.2 541C248.7 541 284.3 541 320 541C355.7 541 391.3 541 426.8 541C462.3 541 497.7 541 533.2 541C568.7 541 604.3 541 640 541C675.7 541 711.3 541 746.8 541C782.3 541 817.7 541 853.2 541C888.7 541 924.3 541 942.2 541L960 541L960 507L942.2 506C924.3 505 888.7 503 853.2 498.5C817.7 494 782.3 487 746.8 484.3C711.3 481.7 675.7 483.3 640 485C604.3 486.7 568.7 488.3 533.2 488.3C497.7 488.3 462.3 486.7 426.8 488.5C391.3 490.3 355.7 495.7 320 496.5C284.3 497.3 248.7 493.7 213.2 495.5C177.7 497.3 142.3 504.7 106.8 507.5C71.3 510.3 35.7 508.7 17.8 507.8L0 507Z" fill="#1b7f89"></path></svg>