<svg id="visual" viewBox="0 0 960 540" width="960" height="540" xmlns="http://www.w3.org/2000/svg" xmlns:xlink="http://www.w3.org/1999/xlink" version="1.1"><path d="M0 33L14.5 35.8C29 38.7 58 44.3 87.2 42.7C116.3 41 145.7 32 174.8 33.7C204 35.3 233 47.7 262 50.3C291 53 320 46 349 42.5C378 39 407 39 436.2 39.8C465.3 40.7 494.7 42.3 523.8 43.2C553 44 582 44 611 40.5C640 37 669 30 698 27.3C727 24.7 756 26.3 785.2 30.8C814.3 35.3 843.7 42.7 872.8 46.3C902 50 931 50 945.5 50L960 50L960 0L945.5 0C931 0 902 0 872.8 0C843.7 0 814.3 0 785.2 0C756 0 727 0 698 0C669 0 640 0 611 0C582 0 553 0 523.8 0C494.7 0 465.3 0 436.2 0C407 0 378 0 349 0C320 0 291 0 262 0C233 0 204 0 174.8 0C145.7 0 116.3 0 87.2 0C58 0 29 0 14.5 0L0 0Z" fill="#1b7f89"></path><path d="M0 136L14.5 139.7C29 143.3 58 150.7 87.2 151.5C116.3 152.3 145.7 146.7 174.8 143.8C204 141 233 141 262 135.7C291 130.3 320 119.7 349 114.3C378 109 407 109 436.2 112.7C465.3 116.3 494.7 123.7 523.8 123.7C553 123.7 582 116.3 611 104.5C640 92.7 669 76.3 698 81.7C727 87 756 114 785.2 124C814.3 134 843.7 127 872.8 119.8C902 112.7 931 105.3 945.5 101.7L960 98L960 48L945.5 48C931 48 902 48 872.8 44.3C843.7 40.7 814.3 33.3 785.2 28.8C756 24.3 727 22.7 698 25.3C669 28 640 35 611 38.5C582 42 553 42 523.8 41.2C494.7 40.3 465.3 38.7 436.2 37.8C407 37 378 37 349 40.5C320 44 291 51 262 48.3C233 45.7 204 33.3 174.8 31.7C145.7 30 116.3 39 87.2 40.7C58 42.3 29 36.7 14.5 33.8L0 31Z" fill="#22a6b2"></path><path d="M0 271L14.5 267.3C29 263.7 58 256.3 87.2 249.2C116.3 242 145.7 235 174.8 251.3C204 267.7 233 307.3 262 318.2C291 329 320 311 349 294.7C378 278.3 407 263.7 436.2 260C465.3 256.3 494.7 263.7 523.8 270C553 276.3 582 281.7 611 275.3C640 269 669 251 698 246.5C727 242 756 251 785.2 255.5C814.3 260 843.7 260 872.8 259.2C902 258.3 931 256.7 945.5 255.8L960 255L960 96L945.5 99.7C931 103.3 902 110.7 872.8 117.8C843.7 125 814.3 132 785.2 122C756 112 727 85 698 79.7C669 74.3 640 90.7 611 102.5C582 114.3 553 121.7 523.8 121.7C494.7 121.7 465.3 114.3 436.2 110.7C407 107 378 107 349 112.3C320 117.7 291 128.3 262 133.7C233 139 204 139 174.8 141.8C145.7 144.7 116.3 150.3 87.2 149.5C58 148.7 29 141.3 14.5 137.7L0 134Z" fill="#59bdc7"></path><path d="M0 368L14.5 367.2C29 366.3 58 364.7 87.2 371C116.3 377.3 145.7 391.7 174.8 399.7C204 407.7 233 409.3 262 404C291 398.7 320 386.3 349 380.2C378 374 407 374 436.2 366.7C465.3 359.3 494.7 344.7 523.8 344.7C553 344.7 582 359.3 611 364.8C640 370.3 669 366.7 698 370.2C727 373.7 756 384.3 785.2 389.7C814.3 395 843.7 395 872.8 394.2C902 393.3 931 391.7 945.5 390.8L960 390L960 253L945.5 253.8C931 254.7 902 256.3 872.8 257.2C843.7 258 814.3 258 785.2 253.5C756 249 727 240 698 244.5C669 249 640 267 611 273.3C582 279.7 553 274.3 523.8 268C494.7 261.7 465.3 254.3 436.2 258C407 261.7 378 276.3 349 292.7C320 309 291 327 262 316.2C233 305.3 204 265.7 174.8 249.3C145.7 233 116.3 240 87.2 247.2C58 254.3 29 261.7 14.5 265.3L0 269Z" fill="#6cc5ce"></path><path d="M0 449L14.5 450C29 451 58 453 87.2 451.2C116.3 449.3 145.7 443.7 174.8 445.3C204 447 233 456 262 459.7C291 463.3 320 461.7 349 461.7C378 461.7 407 463.3 436.2 454.3C465.3 445.3 494.7 425.7 523.8 424.8C553 424 582 442 611 447.3C640 452.7 669 445.3 698 442.7C727 440 756 442 785.2 446.5C814.3 451 843.7 458 872.8 456.2C902 454.3 931 443.7 945.5 438.3L960 433L960 388L945.5 388.8C931 389.7 902 391.3 872.8 392.2C843.7 393 814.3 393 785.2 387.7C756 382.3 727 371.7 698 368.2C669 364.7 640 368.3 611 362.8C582 357.3 553 342.7 523.8 342.7C494.7 342.7 465.3 357.3 436.2 364.7C407 372 378 372 349 378.2C320 384.3 291 396.7 262 402C233 407.3 204 405.7 174.8 397.7C145.7 389.7 116.3 375.3 87.2 369C58 362.7 29 364.3 14.5 365.2L0 366Z" fill="#59bdc7"></path><path d="M0 487L14.5 492.3C29 497.7 58 508.3 87.2 509.2C116.3 510 145.7 501 174.8 499.3C204 497.7 233 503.3 262 504.3C291 505.3 320 501.7 349 501.7C378 501.7 407 505.3 436.2 502.7C465.3 500 494.7 491 523.8 490C553 489 582 496 611 495C640 494 669 485 698 486C727 487 756 498 785.2 501.7C814.3 505.3 843.7 501.7 872.8 501.7C902 501.7 931 505.3 945.5 507.2L960 509L960 431L945.5 436.3C931 441.7 902 452.3 872.8 454.2C843.7 456 814.3 449 785.2 444.5C756 440 727 438 698 440.7C669 443.3 640 450.7 611 445.3C582 440 553 422 523.8 422.8C494.7 423.7 465.3 443.3 436.2 452.3C407 461.3 378 459.7 349 459.7C320 459.7 291 461.3 262 457.7C233 454 204 445 174.8 443.3C145.7 441.7 116.3 447.3 87.2 449.2C58 451 29 449 14.5 448L0 447Z" fill="#22a6b2"></path><path d="M0 541L14.5 541C29 541 58 541 87.2 541C116.3 541 145.7 541 174.8 541C204 541 233 541 262 541C291 541 320 541 349 541C378 541 407 541 436.2 541C465.3 541 494.7 541 523.8 541C553 541 582 541 611 541C640 541 669 541 698 541C727 541 756 541 785.2 541C814.3 541 843.7 541 872.8 541C902 541 931 541 945.5 541L960 541L960 507L945.5 505.2C931 503.3 902 499.7 872.8 499.7C843.7 499.7 814.3 503.3 785.2 499.7C756 496 727 485 698 484C669 483 640 492 611 493C582 494 553 487 523.8 488C494.7 489 465.3 498 436.2 500.7C407 503.3 378 499.7 349 499.7C320 499.7 291 503.3 262 502.3C233 501.3 204 495.7 174.8 497.3C145.7 499 116.3 508 87.2 507.2C58 506.3 29 495.7 14.5 490.3L0 485Z" fill="#1b7f89"></path></svg>