<?xml version="1.0" encoding="UTF-8" standalone="no" ?>
<!DOCTYPE svg PUBLIC "-//W3C//DTD SVG 1.1//EN" "http://www.w3.org/Graphics/SVG/1.1/DTD/svg11.dtd">
<svg xmlns="http://www.w3.org/2000/svg" xmlns:xlink="http://www.w3.org/1999/xlink" version="1.1" width="1080" height="1080" viewBox="0 0 1080 1080" xml:space="preserve">
<desc>Created with Fabric.js 5.2.4</desc>
<defs>
</defs>
<rect x="0" y="0" width="100%" height="100%" fill="transparent"></rect>
<g transform="matrix(1 0 0 1 540 540)" id="8bd51303-e4e2-4c1e-a4a0-b11873e1f3aa"  >
<rect style="stroke: none; stroke-width: 1; stroke-dasharray: none; stroke-linecap: butt; stroke-dashoffset: 0; stroke-linejoin: miter; stroke-miterlimit: 4; fill: rgb(255,255,255); fill-rule: nonzero; opacity: 1; visibility: hidden;" vector-effect="non-scaling-stroke"  x="-540" y="-540" rx="0" ry="0" width="1080" height="1080" />
</g>
<g transform="matrix(1 0 0 1 540 540)" id="b34b5183-34bc-48f5-9e9e-8afc8109e00d"  >
</g>
<g transform="matrix(1.13 0 0 6.58 537.87 669.16)"  >
<path style="stroke: none; stroke-width: 0; stroke-dasharray: none; stroke-linecap: butt; stroke-dashoffset: 0; stroke-linejoin: miter; stroke-miterlimit: 4; fill: rgb(27,127,137); fill-rule: nonzero; opacity: 1;" vector-effect="non-scaling-stroke"  transform=" translate(-480, -511.97)" d="M 0 541 L 17.8 541 C 35.7 541 71.3 541 106.8 541 C 142.3 541 177.7 541 213.2 541 C 248.7 541 284.3 541 320 541 C 355.7 541 391.3 541 426.8 541 C 462.3 541 497.7 541 533.2 541 C 568.7 541 604.3 541 640 541 C 675.7 541 711.3 541 746.8 541 C 782.3 541 817.7 541 853.2 541 C 888.7 541 924.3 541 942.2 541 L 960 541 L 960 507 L 942.2 506 C 924.3 505 888.7 503 853.2 498.5 C 817.7 494 782.3 487 746.8 484.3 C 711.3 481.7 675.7 483.3 640 485 C 604.3 486.7 568.7 488.3 533.2 488.3 C 497.7 488.3 462.3 486.7 426.8 488.5 C 391.3 490.3 355.7 495.7 320 496.5 C 284.3 497.3 248.7 493.7 213.2 495.5 C 177.7 497.3 142.3 504.7 106.8 507.5 C 71.3 510.3 35.7 508.7 17.8 507.8 L 0 507 Z" stroke-linecap="round" />
</g>
<g transform="matrix(1 0 0 1 540 368.74)"  >
<path style="stroke: none; stroke-width: 1; stroke-dasharray: none; stroke-linecap: butt; stroke-dashoffset: 0; stroke-linejoin: miter; stroke-miterlimit: 4; fill: rgb(27,127,137); fill-rule: nonzero; opacity: 1;" vector-effect="non-scaling-stroke"  transform=" translate(-480, -511.97)" d="M 0 541 L 17.8 541 C 35.7 541 71.3 541 106.8 541 C 142.3 541 177.7 541 213.2 541 C 248.7 541 284.3 541 320 541 C 355.7 541 391.3 541 426.8 541 C 462.3 541 497.7 541 533.2 541 C 568.7 541 604.3 541 640 541 C 675.7 541 711.3 541 746.8 541 C 782.3 541 817.7 541 853.2 541 C 888.7 541 924.3 541 942.2 541 L 960 541 L 960 507 L 942.2 506 C 924.3 505 888.7 503 853.2 498.5 C 817.7 494 782.3 487 746.8 484.3 C 711.3 481.7 675.7 483.3 640 485 C 604.3 486.7 568.7 488.3 533.2 488.3 C 497.7 488.3 462.3 486.7 426.8 488.5 C 391.3 490.3 355.7 495.7 320 496.5 C 284.3 497.3 248.7 493.7 213.2 495.5 C 177.7 497.3 142.3 504.7 106.8 507.5 C 71.3 510.3 35.7 508.7 17.8 507.8 L 0 507 Z" stroke-linecap="round" />
</g>
<g transform="matrix(-1.13 0 0 -8.69 540 600.35)"  >
<path style="stroke: none; stroke-width: 0; stroke-dasharray: none; stroke-linecap: butt; stroke-dashoffset: 0; stroke-linejoin: miter; stroke-miterlimit: 4; fill: rgb(27,127,137); fill-rule: nonzero; opacity: 1;" vector-effect="non-scaling-stroke"  transform=" translate(-480, -511.97)" d="M 0 541 L 17.8 541 C 35.7 541 71.3 541 106.8 541 C 142.3 541 177.7 541 213.2 541 C 248.7 541 284.3 541 320 541 C 355.7 541 391.3 541 426.8 541 C 462.3 541 497.7 541 533.2 541 C 568.7 541 604.3 541 640 541 C 675.7 541 711.3 541 746.8 541 C 782.3 541 817.7 541 853.2 541 C 888.7 541 924.3 541 942.2 541 L 960 541 L 960 507 L 942.2 506 C 924.3 505 888.7 503 853.2 498.5 C 817.7 494 782.3 487 746.8 484.3 C 711.3 481.7 675.7 483.3 640 485 C 604.3 486.7 568.7 488.3 533.2 488.3 C 497.7 488.3 462.3 486.7 426.8 488.5 C 391.3 490.3 355.7 495.7 320 496.5 C 284.3 497.3 248.7 493.7 213.2 495.5 C 177.7 497.3 142.3 504.7 106.8 507.5 C 71.3 510.3 35.7 508.7 17.8 507.8 L 0 507 Z" stroke-linecap="round" />
</g>
<g transform="matrix(1.13 0 0 1.84 537.01 278.22)"  >
<path style="stroke: none; stroke-width: 1; stroke-dasharray: none; stroke-linecap: butt; stroke-dashoffset: 0; stroke-linejoin: miter; stroke-miterlimit: 4; fill: rgb(35,174,186); fill-rule: nonzero; opacity: 1;" vector-effect="non-scaling-stroke"  transform=" translate(-480, -448.09)" d="M 0 509 L 17.8 509.8 C 35.7 510.7 71.3 512.3 106.8 509.5 C 142.3 506.7 177.7 499.3 213.2 497.5 C 248.7 495.7 284.3 499.3 320 498.5 C 355.7 497.7 391.3 492.3 426.8 490.5 C 462.3 488.7 497.7 490.3 533.2 490.3 C 568.7 490.3 604.3 488.7 640 487 C 675.7 485.3 711.3 483.7 746.8 486.3 C 782.3 489 817.7 496 853.2 500.5 C 888.7 505 924.3 507 942.2 508 L 960 509 L 960 415 L 942.2 415 C 924.3 415 888.7 415 853.2 416.8 C 817.7 418.7 782.3 422.3 746.8 417.8 C 711.3 413.3 675.7 400.7 640 398.8 C 604.3 397 568.7 406 533.2 411.3 C 497.7 416.7 462.3 418.3 426.8 412 C 391.3 405.7 355.7 391.3 320 386.8 C 284.3 382.3 248.7 387.7 213.2 392.2 C 177.7 396.7 142.3 400.3 106.8 402.2 C 71.3 404 35.7 404 17.8 404 L 0 404 Z" stroke-linecap="round" />
</g>
</svg>